# xmcd CD database file
#
# Track frame offsets:
#	150
#	39624
#	65186
#	86914
#	115232
#	146548
#	176746
#	203953
#	243094
#	261010
#	290710
#
# Disc length: 4180 seconds
#
# Revision: 1
# Processed by: cddbd v1.5PL3 Copyright (c) Steve Scherf et al.
# Submitted via: CDex 1.51
#
DISCID=ac10520b
DTITLE=Bobby Lyle  - Straight
DYEAR=2004
DGENRE=Jazz
TTITLE0=The Song is You
TTITLE1=Nefertiti
TTITLE2=New World Order
TTITLE3=The Wave
TTITLE4=Yesterdays
TTITLE5=Deep Six
TTITLE6=There is no Greater Love
TTITLE7=Blues for Dexter
TTITLE8=Bop to Bach
TTITLE9=Body and Soul
TTITLE10=Harlem Blues
EXTD=YEAR: 2004
EXTT0=
EXTT1=
EXTT2=
EXTT3=
EXTT4=
EXTT5=
EXTT6=
EXTT7=
EXTT8=
EXTT9=
EXTT10=
PLAYORDER=
